<?xml version="1.0" encoding="utf-8"?>
<!-- Generator: Adobe Illustrator 15.1.0, SVG Export Plug-In . SVG Version: 6.00 Build 0)  -->
<!DOCTYPE svg PUBLIC "-//W3C//DTD SVG 1.1//EN" "http://www.w3.org/Graphics/SVG/1.1/DTD/svg11.dtd">
<svg version="1.1" id="svg" xmlns="http://www.w3.org/2000/svg" xmlns:xlink="http://www.w3.org/1999/xlink" x="0px" y="0px"
	 width="800px" height="300px" viewBox="0 0 800 300" enable-background="new 0 0 800 300" xml:space="preserve">
	<script type="application/ecmascript"> <![CDATA[
    function circle_click(evt) {
        Android.showToast("Hello from SVG");
      var circle = evt.target;
      var itemColor = circle.getAttribute("fill");
      if (itemColor == "#FFFFFF")
        circle.setAttribute("fill", "#FFFF00");
      else
        circle.setAttribute("fill", "#FFFFFF");
    }
  ]]> </script>
<polygon id="base-building-outline" fill="#FFFFFF" stroke="#000000" stroke-width="2" stroke-miterlimit="10" points="215.75,32.5 
	215.75,19 285,19 285,11 512.5,11 512.5,19 583,19 583,32.5 790,32.5 790,246 580,246 580,260 509.5,260 509.5,272 439,272 
	439,287.5 419,287.5 419,289.5 378,289.5 378,287.5 358,287.5 358,272 288,272 288,259.584 218.167,259.584 218.167,246 7,246 
	7,32.5 "/>
<rect id="Boardroom" x="354.5" y="62.75" fill="#FFFFFF" stroke="#231F20" stroke-width="2" stroke-miterlimit="10" width="94.25" height="50"/>
<polygon onclick="circle_click(evt)" id="Dublin" fill="#FFFFFF" stroke="#231F20" stroke-width="2" stroke-miterlimit="10" points="512.5,112.75 512.5,11
	439,11 439,62.75 448.75,62.75 448.75,112.75 "/>
<polygon id="Cardinal" fill="#FFFFFF" stroke="#000000" stroke-width="2" stroke-miterlimit="10" points="509.5,216 509.5,272 
	439,272 439,238.5 490,238.5 490,216 "/>
<rect id="Orion" x="323.75" y="216.75" fill="#FFFFFF" stroke="#000000" stroke-width="2" stroke-miterlimit="10" width="34.25" height="55.25"/>
<rect id="Powell" x="115.5" y="199" fill="#FFFFFF" stroke="#231F20" stroke-width="2" stroke-miterlimit="10" width="102.667" height="47"/>
<polygon id="Westerville" fill="#FFFFFF" stroke="#231F20" stroke-width="2" stroke-miterlimit="10" points="7,191.625 7,246 
	115.5,246 115.5,199 42.5,199 42.5,191.625 "/>
<rect id="Worthington" x="151.25" y="32.5" fill="#FFFFFF" stroke="#231F20" stroke-width="2" stroke-miterlimit="10" width="64.5" height="124.75"/>
<polygon id="Polaris" fill="#FFFFFF" stroke="#231F20" stroke-width="2" stroke-miterlimit="10" points="715.333,216.75 
	715.333,246 580,246 580,134 729,134 729,216.75 "/>
<rect id="Delaware" x="285" y="11" fill="#FFFFFF" stroke="#231F20" stroke-width="2" stroke-miterlimit="10" width="154" height="51.75"/>
<rect id="Capitol" x="50" y="32.5" fill="#FFFFFF" stroke="#000000" stroke-width="2" stroke-miterlimit="10" width="101.25" height="124.75"/>
<polygon id="blank-room15" fill="#C9C9C9" stroke="#231F20" stroke-width="2" stroke-miterlimit="10" points="715.333,216.75 
	715.333,246 790,246 790,137 729,137 729,216.75 "/>
<rect id="blank-room14" x="546.5" y="216.75" fill="#C9C9C9" stroke="#231F20" stroke-width="2" stroke-miterlimit="10" width="33.5" height="43.25"/>
<rect id="blank-room13" x="509.5" y="216.75" fill="#C9C9C9" stroke="#000000" stroke-width="2" stroke-miterlimit="10" width="37" height="43.25"/>
<rect id="blank-room12" x="505.667" y="136.001" fill="#C9C9C9" stroke="#000000" stroke-width="2" stroke-miterlimit="10" width="39.334" height="61.499"/>
<rect id="blank-room11" x="719" y="32.5" fill="#C9C9C9" stroke="#231F20" stroke-width="2" stroke-miterlimit="10" width="46.5" height="84.25"/>
<rect id="blank-room10" x="651.25" y="32.5" fill="#C9C9C9" stroke="#231F20" stroke-width="2" stroke-miterlimit="10" width="67.75" height="84.25"/>
<rect id="blank-room9" x="583" y="32.5" fill="#C9C9C9" stroke="#231F20" stroke-width="2" stroke-miterlimit="10" width="68.25" height="84.25"/>
<rect id="blank-room8" x="512.5" y="19" fill="#C9C9C9" stroke="#231F20" stroke-width="2" stroke-miterlimit="10" width="70.5" height="97.75"/>
<rect id="blank-room7" x="285" y="62.75" fill="#C9C9C9" stroke="#231F20" stroke-width="2" stroke-miterlimit="10" width="51.5" height="50"/>
<rect id="blank-room6" x="215.75" y="19" fill="#C9C9C9" stroke="#231F20" stroke-width="2" stroke-miterlimit="10" width="53.417" height="69.667"/>
<rect id="blank-room5" x="422" y="134" fill="#C9C9C9" stroke="#000000" stroke-width="2" stroke-miterlimit="10" width="46.833" height="63.5"/>
<rect id="blank-room4" x="288" y="216.75" fill="#C9C9C9" stroke="#000000" stroke-width="2" stroke-miterlimit="10" width="35.75" height="55.25"/>
<rect id="blank-room3" x="252.667" y="216.75" fill="#C9C9C9" stroke="#000000" stroke-width="2" stroke-miterlimit="10" width="35.333" height="42.834"/>
<rect id="blank-room2" x="218.167" y="216.75" fill="#C9C9C9" stroke="#000000" stroke-width="2" stroke-miterlimit="10" width="34.5" height="42.834"/>
<rect id="blank-room1" x="218.167" y="197.5" fill="#C9C9C9" stroke="#000000" stroke-width="2" stroke-miterlimit="10" width="24.167" height="19.25"/>
<path id="blank-reception-area" fill="#FFFFFF" stroke="#231F20" stroke-width="2" stroke-miterlimit="10" d="M421.5,221.75v-5H439
	v70.75h-20v2h-41v-2h-20v-70.75h17.5v5c0,0,5.312,7.25,23,7.25C416.188,229,421.5,221.75,421.5,221.75z"/>
<rect id="base-stair2-bg" x="449.5" y="216.75" fill="#FFFFFF" stroke="#000000" stroke-miterlimit="10" width="40.5" height="21.75"/>
<polygon id="base-stair2-outlines" points="490.236,238.061 486,235.784 486,216.75 485,216.75 485,235.247 481.5,233.368 
	481.5,216.75 480.5,216.75 480.5,232.831 477,230.951 477,216.75 476,216.75 476,230.414 472.5,228.534 472.5,216.75 471.5,216.75 
	471.5,227.997 468,226.118 468,216.75 467,216.75 467,225.581 463.5,223.701 463.5,216.75 462.5,216.75 462.5,223.164 459,221.284 
	459,216.75 458,216.75 458,220.747 454.5,218.868 454.5,216.75 453.5,216.75 453.5,218.331 449.736,216.311 449.264,217.189 
	453.5,219.466 453.5,238.5 454.5,238.5 454.5,220.003 458,221.882 458,238.5 459,238.5 459,222.419 462.5,224.299 462.5,238.5 
	463.5,238.5 463.5,224.836 467,226.716 467,238.5 468,238.5 468,227.253 471.5,229.132 471.5,238.5 472.5,238.5 472.5,229.669 
	476,231.549 476,238.5 477,238.5 477,232.086 480.5,233.966 480.5,238.5 481.5,238.5 481.5,234.503 485,236.382 485,238.5 
	486,238.5 486,236.919 489.764,238.939 "/>
<rect id="base-stair1-bg" x="10.042" y="88.625" fill="#FFFFFF" stroke="#000000" stroke-miterlimit="10" width="23.959" height="40.5"/>
<polygon id="base-stair1-outlines" points="34.43,88.879 33.57,88.371 31.053,92.625 10.042,92.625 10.042,93.625 30.461,93.625 
	28.391,97.125 10.042,97.125 10.042,98.125 27.8,98.125 25.729,101.625 10.042,101.625 10.042,102.625 25.138,102.625 
	23.067,106.125 10.042,106.125 10.042,107.125 22.476,107.125 20.405,110.625 10.042,110.625 10.042,111.625 19.813,111.625 
	17.743,115.125 10.042,115.125 10.042,116.125 17.151,116.125 15.081,119.625 10.042,119.625 10.042,120.625 14.49,120.625 
	12.419,124.125 10.042,124.125 10.042,125.125 11.828,125.125 9.612,128.871 10.472,129.379 12.989,125.125 34,125.125 34,124.125 
	13.581,124.125 15.651,120.625 34,120.625 34,119.625 16.242,119.625 18.313,116.125 34,116.125 34,115.125 18.904,115.125 
	20.975,111.625 34,111.625 34,110.625 21.566,110.625 23.637,107.125 34,107.125 34,106.125 24.229,106.125 26.299,102.625 
	34,102.625 34,101.625 26.891,101.625 28.961,98.125 34,98.125 34,97.125 29.552,97.125 31.623,93.625 34,93.625 34,92.625 
	32.214,92.625 "/>
<polygon id="blank-bathroom1" fill="#FFFFFF" stroke="#231F20" stroke-width="2" stroke-miterlimit="10" points="375.5,197.5 
	375.5,183.375 358,183.375 358,150.625 375.5,150.625 375.5,134 295.5,134 295.5,197.5 "/>
<rect id="base-bathroom1-divider" x="295.5" y="165.5" fill="#231F20" width="62.5" height="2"/>
<rect id="blank-bathroom2" x="468.833" y="136.001" fill="#FFFFFF" stroke="#000000" stroke-width="2" stroke-miterlimit="10" width="36.834" height="61.499"/>
<rect id="base-bathroom2-divider" x="468.833" y="165.5" fill="#231F20" width="36.834" height="2"/>
<rect id="blank-elevator" x="422.625" y="155.25" fill="#FFFFFF" stroke="#000000" stroke-miterlimit="10" width="22.375" height="25.25"/>
<rect id="base-stair3-bg" x="765.5" y="86.833" fill="#FFFFFF" stroke="#000000" stroke-miterlimit="10" width="23.959" height="40.5"/>
<polygon id="base-stair3-outlines" points="789.89,87.088 789.028,86.578 786.512,90.833 765.5,90.833 765.5,91.833 785.92,91.833 
	783.85,95.333 765.5,95.333 765.5,96.333 783.258,96.333 781.188,99.833 765.5,99.833 765.5,100.833 780.596,100.833 
	778.525,104.333 765.5,104.333 765.5,105.333 777.934,105.333 775.863,108.833 765.5,108.833 765.5,109.833 775.271,109.833 
	773.201,113.333 765.5,113.333 765.5,114.333 772.609,114.333 770.539,117.833 765.5,117.833 765.5,118.833 769.947,118.833 
	767.877,122.333 765.5,122.333 765.5,123.333 767.285,123.333 765.069,127.078 765.931,127.588 768.447,123.333 789.459,123.333 
	789.459,122.333 769.039,122.333 771.109,118.833 789.459,118.833 789.459,117.833 771.701,117.833 773.771,114.333 
	789.459,114.333 789.459,113.333 774.363,113.333 776.434,109.833 789.459,109.833 789.459,108.833 777.025,108.833 
	779.096,105.333 789.459,105.333 789.459,104.333 779.688,104.333 781.758,100.833 789.459,100.833 789.459,99.833 782.35,99.833 
	784.42,96.333 789.459,96.333 789.459,95.333 785.012,95.333 787.082,91.833 789.459,91.833 789.459,90.833 787.674,90.833 "/>
<rect id="base-elevator-outline" x="425.167" y="157.334" fill="none" stroke="#000000" stroke-miterlimit="10" width="17.5" height="21"/>
<polygon id="Hallways_and_Doors" fill="#FFFFFF" points="733.334,117.75 733.334,115.167 720.834,115.167 720.834,117.75 
	666.834,117.75 666.834,115.167 654.334,115.167 654.334,117.75 598.501,117.75 598.501,115.167 586.001,115.167 586.001,117.75 
	511.5,117.75 511.5,114 463.751,114 463.751,111.001 451.251,111.001 451.251,114 422.625,114 422.625,111.167 375.5,111.167 
	375.5,114 353.188,114 353.188,61.167 337.5,61.167 337.5,114 299.75,114 299.75,111.501 287.25,111.501 287.25,113.959 
	283.75,113.959 283.75,33.583 286.5,33.583 286.5,21.083 283.75,21.083 283.75,20.25 270.438,20.25 270.438,50.25 268.167,50.25 
	268.167,62.75 270.438,62.75 270.438,90.253 213.812,90.253 213.812,110.669 218.833,110.669 218.833,117.667 218.333,117.667 
	218.333,159.167 197.667,159.167 191.333,159.167 191.333,155.5 170.917,155.5 170.917,159.167 166.833,159.167 121,159.167 
	121,155.625 93.5,155.625 93.5,159.167 54.333,159.167 54.333,158.876 47.178,158.876 47.178,86.666 51.438,86.666 51.438,34.667 
	47.178,34.667 47.178,34.656 36.178,34.656 36.178,158.876 26.833,158.876 26.833,185.667 50.5,185.667 50.5,196.667 60.25,196.667 
	60.25,200.375 72.75,200.375 72.75,196.667 99.083,196.667 99.083,200.375 111.583,200.375 111.583,196.667 195.333,196.667 
	195.333,200.5 215.75,200.5 215.75,195.667 231.5,195.667 231.5,198.667 240.584,198.667 240.584,195.667 240.584,194.751 
	240.584,186.833 288.667,186.833 288.667,133 376.5,133 376.5,151.561 373.688,151.561 373.688,147 364.812,147 364.812,151.561 
	359,151.561 359,182.359 364.812,182.359 364.812,185.938 373.688,185.938 373.688,182.359 376.5,182.359 376.5,198.5 
	243.344,198.5 243.344,215.779 243.5,215.779 243.5,218.083 251.25,218.083 251.25,215.779 255.167,215.779 255.167,218.083 
	262.917,218.083 262.917,215.779 290.583,215.779 290.583,218.083 298.333,218.083 298.333,215.779 345,215.779 345,219 
	356.959,219 356.959,215.779 489,215.779 489,215 494.75,215 494.75,217.584 505.959,217.584 505.959,215 510.625,215 
	510.625,215.188 533.875,215.188 533.875,218.334 545.084,218.334 545.084,215.188 565.375,215.188 565.375,218.334 
	576.584,218.334 576.584,215.188 577,215.188 577,198.875 511.5,198.875 511.5,198.5 500.834,198.5 500.834,196.031 
	488.334,196.031 488.334,198.5 421,198.5 421,172.375 423.667,172.375 423.667,161 421,161 421,133 488.334,133 488.334,137.5 
	500.834,137.5 500.834,133.375 524.751,133.375 524.751,137.667 537.251,137.667 537.251,133.375 547.562,133.375 547.562,150.938 
	577,150.938 577,149.126 581.344,149.126 581.344,136.626 577,136.626 577,133.375 577.875,133.375 577.875,132.438 
	708.334,132.438 708.334,135.5 720.834,135.5 720.834,132.438 730.751,132.438 730.751,138.105 743.251,138.105 743.251,133.688 
	749.438,133.688 749.438,132.438 749.438,129.062 749.438,117.75 "/>
<path id="text-first-floor" d="M648.5,274.477h-3.844v5.023h-1.43v-11.375h5.922v1.227h-4.492v3.898h3.844V274.477z M652.32,268.805
	c0,0.234-0.065,0.43-0.195,0.586c-0.131,0.156-0.328,0.234-0.594,0.234c-0.262,0-0.456-0.078-0.586-0.234
	c-0.131-0.156-0.195-0.352-0.195-0.586s0.064-0.433,0.195-0.594c0.13-0.161,0.324-0.242,0.586-0.242c0.26,0,0.457,0.082,0.59,0.246
	S652.32,268.575,652.32,268.805z M652.211,279.5h-1.383v-8.453h1.383V279.5z M657.875,272.344c-0.193-0.035-0.401-0.055-0.625-0.055
	c-0.709,0-1.203,0.388-1.484,1.164v6.047h-1.383v-8.453h1.344l0.023,0.859c0.369-0.678,0.893-1.016,1.57-1.016
	c0.219,0,0.398,0.034,0.547,0.107L657.875,272.344z M663.359,277.336c0-0.297-0.112-0.552-0.336-0.766
	c-0.227-0.215-0.656-0.465-1.297-0.75c-0.746-0.309-1.271-0.57-1.574-0.789c-0.306-0.219-0.533-0.469-0.686-0.746
	c-0.149-0.278-0.227-0.61-0.227-0.996c0-0.688,0.251-1.26,0.754-1.715c0.502-0.456,1.146-0.684,1.926-0.684
	c0.822,0,1.484,0.237,1.984,0.719c0.5,0.479,0.75,1.094,0.75,1.844h-1.375c0-0.38-0.128-0.704-0.383-0.973
	c-0.258-0.271-0.581-0.402-0.979-0.402c-0.406,0-0.726,0.105-0.957,0.314c-0.23,0.211-0.348,0.491-0.348,0.846
	c0,0.281,0.084,0.507,0.254,0.678c0.169,0.172,0.576,0.396,1.223,0.678c1.025,0.401,1.726,0.795,2.096,1.178
	c0.367,0.385,0.555,0.871,0.555,1.459c0,0.735-0.253,1.324-0.758,1.767c-0.506,0.438-1.185,0.661-2.031,0.661
	c-0.881,0-1.594-0.253-2.141-0.76c-0.549-0.504-0.82-1.146-0.82-1.922h1.391c0.018,0.471,0.158,0.836,0.432,1.104
	c0.271,0.268,0.648,0.396,1.141,0.396c0.458,0,0.807-0.103,1.047-0.309C663.239,277.962,663.359,277.686,663.359,277.336z
	 M668.352,269v2.047h1.273v1.117h-1.273v5.249c0,0.333,0.057,0.587,0.164,0.759c0.109,0.172,0.297,0.258,0.562,0.258
	c0.182,0,0.367-0.031,0.555-0.094l-0.016,1.165c-0.312,0.104-0.633,0.155-0.961,0.155c-0.547,0-0.964-0.195-1.25-0.586
	c-0.287-0.391-0.43-0.942-0.43-1.656v-5.25h-1.289v-1.117h1.289V269H668.352z M680.398,274.477h-3.846v5.023h-1.43v-11.375h5.922
	v1.227h-4.492v3.898h3.846V274.477z M684.109,279.5h-1.383v-12h1.383V279.5z M685.992,274.883c0-1.229,0.298-2.201,0.895-2.918
	c0.598-0.716,1.385-1.074,2.363-1.074s1.768,0.351,2.363,1.047c0.596,0.698,0.9,1.648,0.918,2.854v0.893
	c0,1.223-0.297,2.19-0.893,2.904c-0.594,0.714-1.386,1.07-2.375,1.07c-0.979,0-1.765-0.348-2.354-1.039
	c-0.592-0.692-0.897-1.631-0.918-2.812V274.883z M687.375,275.68c0,0.87,0.17,1.555,0.512,2.051
	c0.342,0.498,0.801,0.746,1.379,0.746c1.221,0,1.848-0.879,1.885-2.641v-0.953c0-0.863-0.174-1.548-0.518-2.051
	s-0.805-0.754-1.383-0.754c-0.568,0-1.021,0.251-1.363,0.754s-0.512,1.184-0.512,2.043V275.68z M694.023,274.883
	c0-1.229,0.298-2.201,0.895-2.918c0.596-0.716,1.384-1.074,2.363-1.074c0.979,0,1.767,0.351,2.363,1.047
	c0.596,0.698,0.9,1.648,0.918,2.854v0.893c0,1.223-0.299,2.19-0.893,2.904s-1.386,1.07-2.375,1.07c-0.979,0-1.765-0.348-2.354-1.039
	c-0.593-0.692-0.897-1.631-0.918-2.812V274.883z M695.406,275.68c0,0.87,0.17,1.555,0.512,2.051
	c0.341,0.498,0.801,0.746,1.379,0.746c1.219,0,1.846-0.879,1.883-2.641v-0.953c0-0.863-0.172-1.548-0.516-2.051
	s-0.805-0.754-1.383-0.754c-0.568,0-1.022,0.251-1.363,0.754c-0.342,0.503-0.512,1.184-0.512,2.043V275.68z M705.836,272.344
	c-0.193-0.035-0.4-0.055-0.625-0.055c-0.709,0-1.203,0.388-1.484,1.164v6.047h-1.383v-8.453h1.344l0.023,0.859
	c0.369-0.678,0.893-1.016,1.57-1.016c0.219,0,0.398,0.034,0.547,0.107L705.836,272.344z"/>
<path id="text-orion" d="M333.547,241.562c0,1.356-0.29,2.402-0.868,3.138c-0.578,0.733-1.401,1.101-2.468,1.101
	c-1.025,0-1.835-0.355-2.43-1.07c-0.595-0.713-0.903-1.721-0.926-3.022v-1.873c0-1.331,0.294-2.373,0.882-3.128
	c0.588-0.754,1.408-1.131,2.461-1.131c1.048,0,1.865,0.359,2.451,1.084c0.585,0.722,0.885,1.753,0.899,3.093L333.547,241.562
	L333.547,241.562z M332.296,239.818c0-1.053-0.172-1.834-0.516-2.348c-0.344-0.514-0.872-0.771-1.583-0.771
	c-0.688,0-1.209,0.26-1.562,0.778c-0.353,0.52-0.532,1.285-0.537,2.297v1.783c0,1.019,0.177,1.791,0.53,2.324
	s0.881,0.801,1.583,0.801s1.221-0.246,1.559-0.738c0.338-0.491,0.513-1.245,0.526-2.264V239.818z M338.366,239.402
	c-0.168-0.032-0.351-0.049-0.547-0.049c-0.62,0-1.053,0.34-1.299,1.02v5.291h-1.21v-7.396h1.176l0.021,0.752
	c0.324-0.593,0.782-0.889,1.374-0.889c0.191,0,0.351,0.032,0.479,0.096L338.366,239.402z M340.971,236.307
	c0,0.205-0.057,0.375-0.171,0.512c-0.114,0.139-0.287,0.205-0.52,0.205c-0.229,0-0.399-0.066-0.513-0.205
	c-0.114-0.137-0.171-0.307-0.171-0.512s0.057-0.379,0.171-0.521s0.285-0.212,0.513-0.212c0.228,0,0.4,0.072,0.516,0.215
	C340.913,235.934,340.971,236.105,340.971,236.307z M340.875,245.664h-1.21v-7.396h1.21V245.664z M342.522,241.624
	c0-1.075,0.261-1.927,0.783-2.554s1.211-0.939,2.068-0.939s1.546,0.307,2.068,0.916c0.522,0.61,0.79,1.441,0.803,2.495v0.778
	c0,1.072-0.26,1.92-0.779,2.543c-0.519,0.625-1.212,0.938-2.078,0.938c-0.855,0-1.544-0.303-2.061-0.908
	c-0.517-0.605-0.785-1.428-0.803-2.461L342.522,241.624L342.522,241.624z M343.732,242.32c0,0.762,0.149,1.359,0.448,1.795
	c0.298,0.436,0.701,0.652,1.207,0.652c1.066,0,1.616-0.771,1.647-2.312v-0.834c0-0.757-0.15-1.354-0.451-1.794
	s-0.704-0.66-1.21-0.66c-0.497,0-0.895,0.221-1.193,0.66c-0.298,0.438-0.448,1.033-0.448,1.787V242.32L343.732,242.32z
	 M350.944,238.268l0.034,0.801c0.469-0.625,1.069-0.938,1.798-0.938c1.308,0,1.971,0.873,1.989,2.618v4.915h-1.203v-4.859
	c0-0.58-0.097-0.99-0.291-1.234c-0.194-0.242-0.484-0.364-0.872-0.364c-0.301,0-0.571,0.103-0.81,0.301
	c-0.239,0.2-0.432,0.464-0.578,0.786v5.373h-1.21v-7.396h1.143V238.268L350.944,238.268z"/>
<path id="text-cardinal" d="M456.026,256.88c-0.062,1.22-0.405,2.152-1.027,2.802c-0.622,0.648-1.501,0.973-2.637,0.973
	c-1.143,0-2.047-0.434-2.721-1.301c-0.672-0.867-1.008-2.043-1.008-3.526v-2.062c0-1.479,0.347-2.647,1.035-3.509
	c0.69-0.858,1.632-1.289,2.824-1.289c1.099,0,1.949,0.328,2.551,0.984c0.603,0.655,0.929,1.597,0.98,2.819h-1.445
	c-0.062-0.928-0.258-1.59-0.586-1.983s-0.828-0.595-1.5-0.595c-0.776,0-1.372,0.305-1.789,0.91s-0.625,1.496-0.625,2.668v2.086
	c0,1.15,0.194,2.033,0.582,2.647s0.954,0.923,1.699,0.923s1.279-0.186,1.607-0.556s0.531-1.034,0.609-1.992H456.026L456.026,256.88z
	 M462.12,260.497c-0.083-0.183-0.146-0.489-0.181-0.922c-0.488,0.719-1.113,1.077-1.875,1.077c-0.767,0-1.362-0.215-1.793-0.646
	c-0.431-0.43-0.646-1.034-0.646-1.815c0-0.858,0.292-1.541,0.875-2.047c0.583-0.504,1.383-0.764,2.398-0.772h1.016v-0.897
	c0-0.506-0.112-0.865-0.336-1.078c-0.226-0.215-0.565-0.319-1.023-0.319c-0.417,0-0.755,0.124-1.016,0.371
	c-0.261,0.245-0.391,0.562-0.391,0.94h-1.385c0-0.434,0.128-0.846,0.385-1.238c0.255-0.394,0.599-0.701,1.029-0.926
	c0.434-0.225,0.914-0.336,1.445-0.336c0.864,0,1.522,0.215,1.973,0.646c0.451,0.43,0.683,1.056,0.691,1.879v4.267
	c0.005,0.65,0.094,1.217,0.266,1.694v0.125L462.12,260.497L462.12,260.497z M460.276,259.396c0.339,0,0.661-0.096,0.969-0.281
	c0.308-0.188,0.531-0.422,0.672-0.703v-2.016h-0.781c-0.655,0.011-1.175,0.155-1.555,0.439s-0.57,0.682-0.57,1.189
	c0,0.479,0.099,0.828,0.289,1.043C459.492,259.287,459.818,259.396,460.276,259.396z M468.925,253.341
	c-0.19-0.036-0.401-0.055-0.625-0.055c-0.708,0-1.203,0.388-1.482,1.164v6.047h-1.385v-8.453h1.346l0.021,0.858
	c0.37-0.676,0.896-1.016,1.57-1.016c0.219,0,0.401,0.035,0.547,0.108L468.925,253.341z M469.862,255.889
	c0-1.303,0.243-2.295,0.729-2.978c0.487-0.683,1.188-1.022,2.099-1.022c0.809,0,1.438,0.327,1.892,0.983v-4.375h1.383v12h-1.266
	l-0.07-0.906c-0.453,0.708-1.102,1.062-1.945,1.062c-0.875,0-1.562-0.34-2.059-1.02s-0.751-1.64-0.762-2.879V255.889z
	 M471.245,256.673c0,0.946,0.141,1.644,0.422,2.087c0.281,0.444,0.739,0.667,1.375,0.667c0.688,0,1.2-0.346,1.539-1.038v-4.26
	c-0.354-0.677-0.864-1.015-1.531-1.015c-0.636,0-1.094,0.223-1.375,0.667c-0.28,0.445-0.425,1.128-0.43,2.048V256.673z
	 M479.689,249.802c0,0.234-0.064,0.431-0.194,0.587c-0.13,0.155-0.328,0.233-0.594,0.233c-0.263,0-0.456-0.078-0.587-0.233
	c-0.129-0.156-0.194-0.353-0.194-0.587c0-0.233,0.065-0.433,0.194-0.594c0.131-0.161,0.324-0.242,0.587-0.242
	c0.261,0,0.457,0.082,0.59,0.246S479.689,249.572,479.689,249.802z M479.581,260.497h-1.383v-8.453h1.383V260.497z M483.058,252.044
	l0.039,0.914c0.536-0.714,1.224-1.069,2.057-1.069c1.493,0,2.253,0.996,2.271,2.991v5.617h-1.375v-5.556
	c0-0.66-0.108-1.131-0.332-1.409c-0.222-0.278-0.554-0.418-0.996-0.418c-0.344,0-0.65,0.114-0.926,0.344
	c-0.274,0.229-0.493,0.528-0.66,0.897v6.142h-1.383v-8.453H483.058z M493.847,260.497c-0.083-0.183-0.144-0.489-0.18-0.922
	c-0.489,0.719-1.114,1.077-1.875,1.077c-0.766,0-1.363-0.215-1.793-0.646c-0.43-0.43-0.646-1.034-0.646-1.815
	c0-0.858,0.293-1.541,0.875-2.047c0.584-0.504,1.384-0.764,2.397-0.772h1.016v-0.897c0-0.506-0.11-0.865-0.336-1.078
	c-0.224-0.215-0.563-0.319-1.021-0.319c-0.417,0-0.755,0.124-1.018,0.371c-0.261,0.245-0.391,0.562-0.391,0.94h-1.383
	c0-0.434,0.128-0.846,0.383-1.238c0.255-0.394,0.601-0.701,1.031-0.926c0.432-0.225,0.914-0.336,1.444-0.336
	c0.863,0,1.521,0.215,1.974,0.646c0.452,0.43,0.681,1.056,0.69,1.879v4.267c0.004,0.65,0.095,1.217,0.267,1.694v0.125
	L493.847,260.497L493.847,260.497z M492.003,259.396c0.339,0,0.661-0.096,0.969-0.281c0.31-0.188,0.531-0.422,0.673-0.703v-2.016
	h-0.78c-0.656,0.011-1.177,0.155-1.557,0.439s-0.568,0.682-0.568,1.189c0,0.479,0.097,0.828,0.289,1.043
	C491.219,259.287,491.545,259.396,492.003,259.396z M498.651,260.497h-1.385v-12h1.385V260.497z"/>
<path id="text-powell" d="M146.657,225.044v4.453h-1.43v-11.375h3.625c1.057,0,1.888,0.315,2.492,0.948
	c0.604,0.634,0.906,1.477,0.906,2.527c0,1.094-0.288,1.938-0.863,2.526c-0.576,0.591-1.387,0.896-2.434,0.918L146.657,225.044
	L146.657,225.044z M146.657,223.816h2.195c0.635,0,1.122-0.189,1.461-0.57c0.338-0.381,0.508-0.926,0.508-1.637
	c0-0.685-0.175-1.23-0.523-1.645c-0.349-0.41-0.828-0.617-1.438-0.617h-2.203V223.816z M153.508,224.88
	c0-1.229,0.298-2.202,0.895-2.918c0.596-0.716,1.384-1.073,2.363-1.073s1.767,0.348,2.363,1.047
	c0.596,0.697,0.902,1.647,0.918,2.853v0.892c0,1.225-0.297,2.191-0.891,2.905c-0.594,0.714-1.386,1.07-2.375,1.07
	c-0.979,0-1.765-0.349-2.355-1.039c-0.591-0.692-0.897-1.632-0.918-2.812V224.88z M154.891,225.677c0,0.87,0.17,1.554,0.512,2.052
	c0.341,0.496,0.801,0.746,1.379,0.746c1.219,0,1.846-0.881,1.883-2.642v-0.953c0-0.864-0.172-1.548-0.516-2.051
	c-0.344-0.503-0.805-0.754-1.383-0.754c-0.568,0-1.022,0.251-1.363,0.754c-0.341,0.503-0.512,1.185-0.512,2.043V225.677z
	 M168.133,227.066l1.281-6.022h1.367l-2.07,8.453h-1.102l-1.648-6.047l-1.609,6.047h-1.109l-2.055-8.453h1.359l1.312,5.875
	l1.57-5.875h1.094L168.133,227.066z M175.25,229.652c-1.052,0-1.859-0.312-2.422-0.94s-0.849-1.548-0.859-2.762v-1.022
	c0-1.262,0.274-2.25,0.824-2.966c0.549-0.716,1.316-1.073,2.301-1.073c0.989,0,1.729,0.314,2.219,0.944
	c0.489,0.63,0.739,1.612,0.75,2.944v0.906h-4.719v0.194c0,0.906,0.17,1.563,0.512,1.978c0.341,0.412,0.832,0.617,1.473,0.617
	c0.406,0,0.764-0.076,1.074-0.229s0.6-0.397,0.871-0.729l0.719,0.875C177.394,229.23,176.479,229.652,175.25,229.652z
	 M175.094,222.075c-0.573,0-0.998,0.196-1.273,0.59c-0.276,0.394-0.433,1.004-0.469,1.832h3.328v-0.188
	c-0.037-0.802-0.181-1.375-0.434-1.719C175.994,222.247,175.61,222.075,175.094,222.075z M181.211,229.497h-1.383v-12h1.383V229.497
	z M184.875,229.497h-1.383v-12h1.383V229.497z"/>
<path id="text-boardroom" d="M369.893,93.164V81.789h3.242c1.036,0,1.816,0.253,2.34,0.758s0.785,1.263,0.785,2.273
	c0,0.531-0.133,1-0.398,1.406c-0.265,0.406-0.625,0.722-1.078,0.945c0.521,0.156,0.934,0.477,1.238,0.961
	c0.304,0.484,0.457,1.067,0.457,1.75c0,1.021-0.28,1.823-0.84,2.406s-1.358,0.875-2.395,0.875L369.893,93.164L369.893,93.164z
	 M371.322,86.641h1.836c0.495,0,0.895-0.167,1.199-0.501s0.457-0.778,0.457-1.331c0-0.626-0.138-1.082-0.414-1.366
	c-0.276-0.284-0.698-0.427-1.266-0.427h-1.812V86.641z M371.322,87.844v4.094h1.953c0.542,0,0.971-0.179,1.289-0.535
	c0.317-0.356,0.477-0.858,0.477-1.504c0-1.37-0.578-2.055-1.734-2.055H371.322z M378.135,88.547c0-1.229,0.298-2.202,0.896-2.918
	c0.596-0.716,1.384-1.074,2.363-1.074s1.767,0.349,2.363,1.047c0.596,0.698,0.902,1.648,0.918,2.852v0.891
	c0,1.224-0.297,2.192-0.891,2.906c-0.594,0.714-1.386,1.07-2.375,1.07c-0.979,0-1.765-0.347-2.355-1.039
	c-0.591-0.692-0.896-1.63-0.918-2.812L378.135,88.547L378.135,88.547z M379.518,89.344c0,0.87,0.17,1.554,0.512,2.051
	c0.341,0.497,0.801,0.746,1.379,0.746c1.219,0,1.846-0.88,1.883-2.641v-0.953c0-0.864-0.172-1.548-0.516-2.051
	c-0.344-0.503-0.805-0.754-1.383-0.754c-0.568,0-1.022,0.251-1.363,0.754c-0.341,0.503-0.512,1.184-0.512,2.043V89.344z
	 M390.807,93.164c-0.083-0.183-0.144-0.489-0.18-0.922c-0.49,0.719-1.115,1.078-1.875,1.078c-0.766,0-1.363-0.215-1.793-0.645
	c-0.43-0.43-0.645-1.035-0.645-1.816c0-0.859,0.292-1.542,0.875-2.047s1.383-0.763,2.398-0.773h1.016v-0.898
	c0-0.505-0.112-0.864-0.336-1.078s-0.565-0.32-1.023-0.32c-0.417,0-0.755,0.124-1.016,0.371c-0.261,0.247-0.391,0.562-0.391,0.941
	h-1.383c0-0.433,0.127-0.845,0.383-1.238c0.255-0.394,0.599-0.702,1.031-0.926c0.432-0.224,0.914-0.336,1.445-0.336
	c0.864,0,1.522,0.215,1.973,0.645c0.45,0.43,0.681,1.056,0.691,1.879v4.266c0.005,0.651,0.094,1.216,0.266,1.695v0.125
	L390.807,93.164L390.807,93.164z M388.963,92.062c0.338,0,0.661-0.094,0.969-0.281c0.307-0.188,0.531-0.422,0.672-0.703v-2.016
	h-0.781c-0.656,0.011-1.175,0.157-1.555,0.441s-0.57,0.681-0.57,1.191c0,0.479,0.096,0.827,0.289,1.043
	C388.179,91.954,388.504,92.062,388.963,92.062z M397.611,86.008c-0.193-0.036-0.401-0.055-0.625-0.055
	c-0.708,0-1.203,0.388-1.484,1.164v6.047h-1.383v-8.453h1.344l0.023,0.859c0.37-0.677,0.893-1.016,1.57-1.016
	c0.221,0,0.401,0.036,0.548,0.109L397.611,86.008z M398.549,88.555c0-1.302,0.243-2.294,0.73-2.977
	c0.485-0.683,1.186-1.023,2.098-1.023c0.807,0,1.438,0.328,1.891,0.984v-4.375h1.385v12h-1.268l-0.068-0.906
	c-0.453,0.708-1.104,1.062-1.945,1.062c-0.875,0-1.562-0.34-2.061-1.02c-0.498-0.68-0.751-1.64-0.762-2.879V88.555z M399.932,89.34
	c0,0.946,0.143,1.643,0.422,2.087c0.281,0.444,0.739,0.667,1.375,0.667c0.688,0,1.2-0.346,1.539-1.038v-4.26
	c-0.354-0.677-0.863-1.015-1.529-1.015c-0.638,0-1.096,0.223-1.375,0.667c-0.281,0.445-0.426,1.128-0.432,2.048V89.34z
	 M410.268,86.008c-0.191-0.036-0.399-0.055-0.625-0.055c-0.709,0-1.201,0.388-1.482,1.164v6.047h-1.383v-8.453h1.344l0.021,0.859
	c0.369-0.677,0.895-1.016,1.57-1.016c0.219,0,0.4,0.036,0.547,0.109L410.268,86.008z M411.197,88.547
	c0-1.229,0.298-2.202,0.895-2.918c0.596-0.716,1.384-1.074,2.363-1.074c0.979,0,1.767,0.349,2.363,1.047
	c0.596,0.698,0.9,1.648,0.918,2.852v0.891c0,1.224-0.297,2.192-0.893,2.906c-0.594,0.714-1.386,1.07-2.375,1.07
	c-0.979,0-1.765-0.347-2.354-1.039c-0.592-0.692-0.897-1.63-0.918-2.812V88.547z M412.58,89.344c0,0.87,0.17,1.554,0.512,2.051
	c0.341,0.497,0.801,0.746,1.379,0.746c1.219,0,1.848-0.88,1.883-2.641v-0.953c0-0.864-0.172-1.548-0.516-2.051
	s-0.805-0.754-1.383-0.754c-0.568,0-1.022,0.251-1.363,0.754c-0.342,0.503-0.512,1.184-0.512,2.043V89.344z M419.229,88.547
	c0-1.229,0.3-2.202,0.896-2.918c0.596-0.716,1.384-1.074,2.363-1.074c0.979,0,1.767,0.349,2.361,1.047
	c0.598,0.698,0.902,1.648,0.918,2.852v0.891c0,1.224-0.297,2.192-0.891,2.906s-1.386,1.07-2.375,1.07
	c-0.979,0-1.765-0.347-2.355-1.039c-0.592-0.692-0.896-1.63-0.918-2.812V88.547z M420.611,89.344c0,0.87,0.17,1.554,0.512,2.051
	c0.341,0.497,0.801,0.746,1.379,0.746c1.219,0,1.846-0.88,1.883-2.641v-0.953c0-0.864-0.172-1.548-0.516-2.051
	s-0.805-0.754-1.383-0.754c-0.568,0-1.022,0.251-1.363,0.754c-0.342,0.503-0.512,1.184-0.512,2.043V89.344z M428.854,84.711
	l0.031,0.781c0.518-0.625,1.195-0.938,2.039-0.938c0.942,0,1.604,0.409,1.979,1.227c0.529-0.817,1.271-1.227,2.219-1.227
	c1.557,0,2.354,0.972,2.391,2.914v5.695h-1.375v-5.562c0-0.614-0.107-1.071-0.328-1.371c-0.219-0.3-0.589-0.449-1.107-0.449
	c-0.417,0-0.756,0.161-1.018,0.484c-0.261,0.323-0.41,0.734-0.451,1.234v5.664h-1.393v-5.625c-0.016-1.172-0.492-1.758-1.43-1.758
	c-0.698,0-1.19,0.349-1.479,1.047v6.336h-1.375V84.71L428.854,84.711L428.854,84.711z"/>
<path id="text-polaris" d="M630.99,188.878v4.453h-1.43v-11.375h3.625c1.057,0,1.888,0.315,2.49,0.948
	c0.604,0.634,0.906,1.477,0.906,2.527c0,1.094-0.288,1.938-0.863,2.526c-0.574,0.591-1.387,0.896-2.434,0.918L630.99,188.878
	L630.99,188.878z M630.99,187.65h2.195c0.635,0,1.12-0.189,1.461-0.57c0.338-0.381,0.508-0.926,0.508-1.637
	c0-0.685-0.176-1.23-0.523-1.645c-0.35-0.41-0.828-0.617-1.438-0.617h-2.203V187.65z M637.842,188.714
	c0-1.229,0.298-2.202,0.896-2.918c0.596-0.716,1.384-1.073,2.361-1.073c0.979,0,1.769,0.348,2.363,1.047
	c0.596,0.697,0.902,1.647,0.918,2.853v0.892c0,1.225-0.297,2.191-0.891,2.905s-1.387,1.07-2.375,1.07
	c-0.979,0-1.767-0.349-2.355-1.039c-0.592-0.692-0.896-1.632-0.918-2.812V188.714z M639.225,189.512c0,0.869,0.17,1.553,0.514,2.051
	c0.341,0.496,0.801,0.746,1.379,0.746c1.219,0,1.846-0.881,1.883-2.642v-0.953c0-0.864-0.172-1.548-0.516-2.051
	c-0.346-0.503-0.807-0.754-1.385-0.754c-0.566,0-1.021,0.251-1.361,0.754c-0.344,0.503-0.514,1.185-0.514,2.043V189.512
	L639.225,189.512z M647.654,193.331h-1.383v-12h1.383V193.331z M654.178,193.331c-0.084-0.183-0.144-0.489-0.18-0.922
	c-0.49,0.719-1.115,1.077-1.875,1.077c-0.766,0-1.363-0.215-1.793-0.646c-0.43-0.43-0.646-1.034-0.646-1.815
	c0-0.858,0.291-1.541,0.875-2.047c0.583-0.504,1.385-0.764,2.398-0.772h1.016v-0.897c0-0.506-0.11-0.865-0.336-1.078
	c-0.225-0.215-0.563-0.319-1.021-0.319c-0.417,0-0.756,0.124-1.018,0.371c-0.261,0.245-0.391,0.562-0.391,0.94h-1.383
	c0-0.434,0.127-0.846,0.383-1.238c0.255-0.395,0.599-0.701,1.031-0.926c0.432-0.225,0.914-0.336,1.443-0.336
	c0.864,0,1.521,0.215,1.975,0.646c0.449,0.43,0.681,1.056,0.689,1.879v4.267c0.006,0.65,0.094,1.217,0.268,1.694v0.125
	L654.178,193.331L654.178,193.331z M652.334,192.229c0.338,0,0.661-0.094,0.969-0.279c0.309-0.188,0.531-0.424,0.672-0.703v-2.018
	h-0.779c-0.656,0.013-1.176,0.158-1.557,0.441c-0.381,0.284-0.568,0.682-0.568,1.191c0,0.479,0.096,0.826,0.287,1.043
	C651.55,192.121,651.875,192.229,652.334,192.229z M660.982,186.175c-0.193-0.036-0.401-0.055-0.625-0.055
	c-0.709,0-1.203,0.388-1.484,1.164v6.047h-1.383v-8.453h1.344l0.023,0.858c0.369-0.676,0.893-1.016,1.568-1.016
	c0.221,0,0.4,0.035,0.547,0.108L660.982,186.175z M663.959,182.637c0,0.233-0.064,0.43-0.195,0.586
	c-0.131,0.155-0.328,0.233-0.594,0.233c-0.261,0-0.456-0.078-0.586-0.233c-0.131-0.156-0.195-0.353-0.195-0.586
	c0-0.234,0.064-0.434,0.195-0.595c0.13-0.161,0.325-0.242,0.586-0.242c0.26,0,0.457,0.082,0.59,0.246
	S663.959,182.406,663.959,182.637z M663.85,193.331h-1.383v-8.453h1.383V193.331z M670.131,191.167c0-0.297-0.111-0.552-0.336-0.767
	c-0.225-0.213-0.656-0.463-1.297-0.75c-0.745-0.309-1.27-0.569-1.574-0.789c-0.304-0.219-0.533-0.467-0.684-0.745
	c-0.151-0.278-0.229-0.61-0.229-0.996c0-0.688,0.251-1.259,0.755-1.716c0.503-0.455,1.146-0.684,1.927-0.684
	c0.821,0,1.482,0.238,1.982,0.719c0.5,0.479,0.75,1.095,0.75,1.845h-1.375c0-0.38-0.128-0.704-0.383-0.974
	c-0.256-0.27-0.581-0.401-0.977-0.401c-0.406,0-0.728,0.104-0.957,0.315c-0.232,0.209-0.35,0.49-0.35,0.844
	c0,0.281,0.084,0.508,0.254,0.679c0.17,0.172,0.576,0.397,1.225,0.678c1.023,0.401,1.724,0.794,2.094,1.179
	c0.369,0.383,0.556,0.869,0.556,1.459c0,0.734-0.254,1.323-0.759,1.766c-0.506,0.439-1.183,0.66-2.029,0.66
	c-0.883,0-1.596-0.254-2.143-0.758c-0.547-0.506-0.819-1.146-0.819-1.922h1.392c0.016,0.469,0.158,0.836,0.43,1.103
	c0.271,0.266,0.65,0.397,1.141,0.397c0.459,0,0.809-0.104,1.049-0.31C670.011,191.793,670.131,191.516,670.131,191.167z"/>
<path id="text-dublin" d="M461.727,67.494V56.119h2.711c1.328,0,2.359,0.415,3.096,1.246c0.733,0.831,1.102,1.999,1.102,3.504v1.906
	c0,1.505-0.373,2.668-1.117,3.488c-0.744,0.82-1.824,1.23-3.24,1.23L461.727,67.494L461.727,67.494z M463.156,57.346v8.922h1.146
	c1.005,0,1.739-0.288,2.203-0.864c0.463-0.575,0.7-1.43,0.711-2.561v-2.018c0-1.199-0.229-2.078-0.689-2.639
	s-1.158-0.841-2.09-0.841L463.156,57.346L463.156,57.346z M474.977,66.752c-0.459,0.599-1.128,0.898-2.008,0.898
	c-0.766,0-1.344-0.265-1.732-0.793c-0.392-0.528-0.59-1.298-0.596-2.309V59.04h1.375v5.406c0,1.317,0.396,1.977,1.188,1.977
	c0.838,0,1.416-0.375,1.733-1.125V59.04h1.384v8.453h-1.312L474.977,66.752z M484.523,63.674c0,1.317-0.237,2.31-0.711,2.977
	c-0.477,0.667-1.162,1-2.062,1c-0.896,0-1.568-0.386-2.016-1.156l-0.07,1h-1.258v-12h1.375v4.477
	c0.453-0.724,1.104-1.086,1.953-1.086c0.927,0,1.621,0.328,2.086,0.984c0.463,0.656,0.695,1.646,0.703,2.969V63.674z
	 M483.148,62.881c0-0.998-0.142-1.71-0.418-2.134c-0.279-0.424-0.73-0.636-1.355-0.636c-0.714,0-1.245,0.385-1.594,1.154v4.02
	c0.344,0.759,0.88,1.139,1.607,1.139c0.625,0,1.072-0.219,1.346-0.655c0.271-0.438,0.406-1.116,0.414-2.037V62.881z M487.781,67.494
	h-1.383v-12h1.383V67.494z M491.555,56.799c0,0.234-0.063,0.43-0.193,0.586c-0.133,0.156-0.328,0.234-0.596,0.234
	c-0.261,0-0.455-0.078-0.586-0.234c-0.131-0.156-0.193-0.352-0.193-0.586c0-0.234,0.062-0.433,0.193-0.594s0.325-0.242,0.586-0.242
	c0.262,0,0.457,0.082,0.59,0.246C491.489,56.373,491.555,56.569,491.555,56.799z M491.445,67.494h-1.383v-8.453h1.383V67.494z
	 M494.922,59.041l0.039,0.914c0.536-0.714,1.221-1.07,2.055-1.07c1.494,0,2.252,0.997,2.273,2.992v5.617h-1.375v-5.555
	c0-0.661-0.111-1.132-0.332-1.41c-0.222-0.278-0.554-0.418-0.996-0.418c-0.344,0-0.652,0.114-0.926,0.344
	c-0.274,0.23-0.494,0.528-0.66,0.898v6.141h-1.383v-8.453H494.922z"/>
<path id="text-delaware" d="M339.227,41.494V30.119h2.711c1.328,0,2.359,0.415,3.094,1.246c0.735,0.831,1.102,1.999,1.102,3.504
	v1.906c0,1.505-0.373,2.668-1.117,3.488c-0.745,0.82-1.826,1.23-3.242,1.23L339.227,41.494L339.227,41.494z M340.656,31.346v8.922
	h1.148c1.005,0,1.739-0.288,2.203-0.864c0.463-0.575,0.7-1.43,0.711-2.561v-2.018c0-1.199-0.229-2.078-0.691-2.639
	c-0.461-0.561-1.158-0.841-2.09-0.841L340.656,31.346L340.656,31.346z M351.188,41.65c-1.052,0-1.859-0.313-2.422-0.941
	s-0.849-1.548-0.859-2.762v-1.023c0-1.261,0.274-2.249,0.824-2.965c0.549-0.716,1.316-1.074,2.301-1.074
	c0.989,0,1.729,0.315,2.219,0.945c0.489,0.63,0.739,1.612,0.75,2.945v0.906h-4.719v0.195c0,0.906,0.17,1.565,0.512,1.977
	c0.341,0.411,0.832,0.617,1.473,0.617c0.406,0,0.764-0.077,1.074-0.23c0.31-0.153,0.6-0.397,0.871-0.73l0.719,0.875
	C353.331,41.229,352.417,41.65,351.188,41.65z M351.031,34.072c-0.573,0-0.998,0.196-1.273,0.59
	c-0.276,0.394-0.433,1.004-0.469,1.832h3.328v-0.188c-0.037-0.802-0.181-1.375-0.434-1.719
	C351.931,34.244,351.547,34.072,351.031,34.072z M357.148,41.494h-1.383v-12h1.383V41.494z M363.672,41.494
	c-0.083-0.183-0.144-0.489-0.18-0.922c-0.49,0.719-1.115,1.078-1.875,1.078c-0.766,0-1.363-0.215-1.793-0.645
	c-0.43-0.43-0.645-1.035-0.645-1.816c0-0.859,0.292-1.542,0.875-2.047s1.383-0.763,2.398-0.773h1.016v-0.898
	c0-0.505-0.112-0.864-0.336-1.078c-0.224-0.214-0.565-0.32-1.023-0.32c-0.417,0-0.755,0.124-1.016,0.371
	c-0.261,0.247-0.391,0.562-0.391,0.941h-1.383c0-0.433,0.127-0.845,0.383-1.238c0.255-0.394,0.599-0.702,1.031-0.926
	c0.432-0.224,0.914-0.336,1.445-0.336c0.864,0,1.522,0.215,1.973,0.645c0.45,0.43,0.681,1.056,0.691,1.879v4.266
	c0.005,0.651,0.094,1.216,0.266,1.695v0.125L363.672,41.494L363.672,41.494z M361.828,40.393c0.338,0,0.661-0.094,0.969-0.281
	c0.307-0.188,0.531-0.422,0.672-0.703v-2.016h-0.781c-0.656,0.011-1.175,0.157-1.555,0.441c-0.38,0.284-0.57,0.681-0.57,1.191
	c0,0.479,0.096,0.827,0.289,1.043C361.044,40.284,361.37,40.393,361.828,40.393z M373.289,39.064l1.281-6.023h1.367l-2.07,8.453
	h-1.102l-1.648-6.047l-1.609,6.047h-1.109l-2.055-8.453h1.359l1.312,5.875l1.57-5.875h1.094L373.289,39.064z M381.734,41.494
	c-0.083-0.183-0.144-0.489-0.18-0.922c-0.49,0.719-1.115,1.078-1.875,1.078c-0.766,0-1.363-0.215-1.793-0.645
	c-0.43-0.43-0.645-1.035-0.645-1.816c0-0.859,0.292-1.542,0.875-2.047s1.383-0.763,2.398-0.773h1.016v-0.898
	c0-0.505-0.112-0.864-0.336-1.078c-0.224-0.214-0.565-0.32-1.023-0.32c-0.417,0-0.755,0.124-1.016,0.371
	c-0.261,0.247-0.391,0.562-0.391,0.941h-1.383c0-0.433,0.127-0.845,0.383-1.238c0.255-0.394,0.599-0.702,1.031-0.926
	c0.432-0.224,0.914-0.336,1.445-0.336c0.864,0,1.522,0.215,1.973,0.645c0.45,0.43,0.681,1.056,0.691,1.879v4.266
	c0.005,0.651,0.094,1.216,0.266,1.695v0.125L381.734,41.494L381.734,41.494z M379.891,40.393c0.338,0,0.661-0.094,0.969-0.281
	c0.307-0.188,0.531-0.422,0.672-0.703v-2.016h-0.781c-0.656,0.011-1.175,0.157-1.555,0.441c-0.38,0.284-0.57,0.681-0.57,1.191
	c0,0.479,0.096,0.827,0.289,1.043C379.106,40.284,379.432,40.393,379.891,40.393z M388.539,34.338
	c-0.193-0.036-0.401-0.055-0.625-0.055c-0.708,0-1.203,0.388-1.484,1.164v6.047h-1.383v-8.453h1.344l0.023,0.859
	c0.37-0.677,0.893-1.016,1.57-1.016c0.219,0,0.401,0.036,0.547,0.109L388.539,34.338z M392.789,41.65
	c-1.052,0-1.859-0.313-2.422-0.941s-0.849-1.548-0.859-2.762v-1.023c0-1.261,0.274-2.249,0.824-2.965
	c0.549-0.716,1.316-1.074,2.301-1.074c0.989,0,1.729,0.315,2.219,0.945c0.489,0.63,0.739,1.612,0.75,2.945v0.906h-4.719v0.195
	c0,0.906,0.17,1.565,0.512,1.977c0.341,0.411,0.832,0.617,1.473,0.617c0.406,0,0.764-0.077,1.074-0.23
	c0.31-0.153,0.6-0.397,0.871-0.73l0.719,0.875C394.932,41.229,394.018,41.65,392.789,41.65z M392.633,34.072
	c-0.573,0-0.998,0.196-1.273,0.59c-0.276,0.394-0.433,1.004-0.469,1.832h3.328v-0.188c-0.037-0.802-0.181-1.375-0.434-1.719
	C393.532,34.244,393.148,34.072,392.633,34.072z"/>
<path id="text-westerville" d="M31.732,225.911l0.148,1.272l0.227-1.125l1.82-7.938h1.195l1.766,7.938l0.227,1.155l0.164-1.312
	l1.391-7.78h1.43l-2.266,11.375h-1.289l-1.898-8.289l-0.117-0.672l-0.117,0.672l-1.969,8.289h-1.297l-2.258-11.375h1.43
	L31.732,225.911z M44.334,229.652c-1.052,0-1.859-0.312-2.422-0.94s-0.849-1.548-0.859-2.762v-1.022c0-1.262,0.274-2.25,0.824-2.966
	c0.549-0.716,1.316-1.073,2.301-1.073c0.989,0,1.729,0.314,2.219,0.944c0.489,0.63,0.739,1.612,0.75,2.944v0.906h-4.719v0.194
	c0,0.906,0.17,1.563,0.512,1.978c0.341,0.412,0.832,0.617,1.473,0.617c0.406,0,0.764-0.076,1.074-0.229s0.6-0.397,0.871-0.729
	l0.719,0.875C46.477,229.23,45.563,229.652,44.334,229.652z M44.178,222.075c-0.573,0-0.998,0.196-1.271,0.59
	c-0.276,0.394-0.433,1.004-0.469,1.832h3.328v-0.188c-0.037-0.802-0.181-1.375-0.434-1.719
	C45.077,222.247,44.693,222.075,44.178,222.075z M52.912,227.333c0-0.297-0.112-0.552-0.336-0.767
	c-0.224-0.213-0.656-0.463-1.297-0.75c-0.745-0.309-1.27-0.569-1.574-0.789c-0.304-0.219-0.533-0.467-0.684-0.745
	s-0.227-0.61-0.227-0.996c0-0.688,0.251-1.259,0.754-1.716c0.502-0.455,1.145-0.685,1.926-0.685c0.823,0,1.484,0.239,1.984,0.72
	c0.5,0.479,0.75,1.095,0.75,1.845h-1.375c0-0.38-0.128-0.704-0.383-0.974c-0.255-0.27-0.581-0.401-0.977-0.401
	c-0.406,0-0.726,0.104-0.957,0.315c-0.232,0.209-0.348,0.49-0.348,0.844c0,0.281,0.084,0.508,0.254,0.679
	c0.169,0.172,0.577,0.397,1.223,0.678c1.026,0.401,1.724,0.794,2.094,1.179c0.37,0.383,0.555,0.869,0.555,1.459
	c0,0.734-0.253,1.323-0.758,1.766c-0.505,0.439-1.183,0.66-2.031,0.66c-0.88,0-1.594-0.254-2.141-0.758
	c-0.547-0.506-0.82-1.146-0.82-1.922h1.391c0.016,0.469,0.159,0.836,0.43,1.103c0.271,0.266,0.651,0.397,1.141,0.397
	c0.458,0,0.807-0.104,1.047-0.31C52.792,227.959,52.912,227.682,52.912,227.333z M57.904,218.997v2.047h1.273v1.117h-1.273v5.249
	c0,0.333,0.055,0.587,0.164,0.759s0.297,0.258,0.562,0.258c0.182,0,0.367-0.03,0.555-0.094l-0.016,1.165
	c-0.312,0.104-0.633,0.154-0.961,0.154c-0.547,0-0.964-0.194-1.25-0.586c-0.287-0.392-0.43-0.941-0.43-1.655v-5.25H55.24v-1.117
	h1.289v-2.047H57.904L57.904,218.997z M63.842,229.652c-1.052,0-1.859-0.312-2.422-0.94s-0.849-1.548-0.859-2.762v-1.022
	c0-1.262,0.274-2.25,0.824-2.966c0.549-0.716,1.316-1.073,2.301-1.073c0.989,0,1.729,0.314,2.219,0.944
	c0.489,0.63,0.739,1.612,0.75,2.944v0.906h-4.719v0.194c0,0.906,0.17,1.563,0.512,1.978c0.341,0.412,0.832,0.617,1.473,0.617
	c0.406,0,0.764-0.076,1.074-0.229s0.6-0.397,0.871-0.729l0.719,0.875C65.985,229.23,65.071,229.652,63.842,229.652z M63.686,222.075
	c-0.573,0-0.998,0.196-1.273,0.59c-0.276,0.394-0.433,1.004-0.469,1.832h3.328v-0.188c-0.037-0.802-0.181-1.375-0.434-1.719
	C64.585,222.247,64.201,222.075,63.686,222.075z M71.803,222.341c-0.193-0.036-0.401-0.055-0.625-0.055
	c-0.708,0-1.203,0.388-1.484,1.164v6.047h-1.383v-8.453h1.344l0.021,0.858c0.37-0.676,0.893-1.016,1.57-1.016
	c0.219,0,0.401,0.035,0.547,0.108L71.803,222.341z M75.717,227.396l1.602-6.354h1.406l-2.508,8.453h-1.031l-2.539-8.453h1.406
	L75.717,227.396z M81.764,218.802c0,0.234-0.065,0.431-0.195,0.587c-0.13,0.155-0.328,0.233-0.594,0.233
	c-0.261,0-0.456-0.078-0.586-0.233c-0.13-0.156-0.195-0.353-0.195-0.587c0-0.233,0.065-0.433,0.195-0.594
	c0.13-0.161,0.325-0.242,0.586-0.242c0.26,0,0.457,0.082,0.59,0.246C81.698,218.376,81.764,218.572,81.764,218.802z M81.654,229.497
	h-1.383v-8.453h1.383V229.497z M85.318,229.497h-1.383v-12h1.383V229.497z M88.982,229.497H87.6v-12h1.383L88.982,229.497
	L88.982,229.497z M94.178,229.652c-1.052,0-1.859-0.312-2.422-0.94s-0.849-1.548-0.859-2.762v-1.022c0-1.262,0.274-2.25,0.824-2.966
	c0.549-0.716,1.316-1.073,2.301-1.073c0.989,0,1.729,0.314,2.219,0.944c0.489,0.63,0.739,1.612,0.75,2.944v0.906h-4.719v0.194
	c0,0.906,0.17,1.563,0.512,1.978c0.341,0.412,0.832,0.617,1.473,0.617c0.406,0,0.764-0.076,1.074-0.229s0.6-0.397,0.871-0.729
	l0.719,0.875C96.321,229.23,95.407,229.652,94.178,229.652z M94.021,222.075c-0.573,0-0.998,0.196-1.273,0.59
	c-0.276,0.394-0.433,1.004-0.469,1.832h3.328v-0.188c-0.037-0.802-0.181-1.375-0.434-1.719
	C94.921,222.247,94.537,222.075,94.021,222.075z"/>
<path id="text-common-area" d="M237.746,150.454c-0.047,0.914-0.304,1.614-0.771,2.101c-0.467,0.487-1.126,0.729-1.978,0.729
	c-0.855,0-1.535-0.325-2.039-0.976c-0.504-0.651-0.756-1.533-0.756-2.646v-1.547c0-1.109,0.259-1.986,0.776-2.631
	s1.224-0.967,2.118-0.967c0.824,0,1.462,0.246,1.913,0.738c0.451,0.492,0.696,1.197,0.735,2.115h-1.084
	c-0.047-0.695-0.193-1.191-0.439-1.488c-0.246-0.297-0.621-0.445-1.125-0.445c-0.582,0-1.029,0.228-1.342,0.683
	s-0.469,1.122-0.469,2.001v1.564c0,0.863,0.146,1.525,0.437,1.986s0.716,0.69,1.274,0.69s0.961-0.139,1.207-0.416
	c0.246-0.276,0.398-0.774,0.457-1.493h1.086V150.454L237.746,150.454z M238.836,149.704c0-0.922,0.224-1.651,0.671-2.188
	c0.447-0.537,1.038-0.806,1.772-0.806c0.734,0,1.325,0.262,1.772,0.785c0.447,0.523,0.677,1.236,0.688,2.139v0.668
	c0,0.919-0.223,1.646-0.668,2.181c-0.445,0.535-1.039,0.804-1.781,0.804c-0.734,0-1.323-0.261-1.767-0.779s-0.673-1.223-0.688-2.109
	L238.836,149.704L238.836,149.704z M239.873,150.302c0,0.652,0.128,1.165,0.384,1.538c0.256,0.373,0.601,0.561,1.034,0.561
	c0.914,0,1.385-0.659,1.412-1.979v-0.715c0-0.648-0.129-1.161-0.387-1.538c-0.258-0.377-0.604-0.565-1.037-0.565
	c-0.426,0-0.767,0.188-1.022,0.565c-0.255,0.377-0.384,0.888-0.384,1.532V150.302z M246.055,146.827l0.023,0.586
	c0.387-0.469,0.896-0.703,1.529-0.703c0.707,0,1.201,0.307,1.482,0.92c0.398-0.613,0.953-0.92,1.664-0.92
	c1.168,0,1.766,0.729,1.793,2.186v4.271h-1.031v-4.172c0-0.461-0.082-0.804-0.246-1.028c-0.164-0.224-0.441-0.337-0.832-0.337
	c-0.312,0-0.566,0.121-0.762,0.363c-0.196,0.242-0.309,0.551-0.34,0.926v4.248h-1.043v-4.219c-0.012-0.879-0.369-1.318-1.072-1.318
	c-0.521,0-0.893,0.262-1.107,0.785v4.752h-1.031v-6.34H246.055L246.055,146.827z M255.084,146.827l0.023,0.586
	c0.387-0.469,0.896-0.703,1.529-0.703c0.707,0,1.201,0.307,1.482,0.92c0.398-0.613,0.953-0.92,1.664-0.92
	c1.168,0,1.766,0.729,1.793,2.186v4.271h-1.031v-4.172c0-0.461-0.082-0.804-0.246-1.028c-0.164-0.224-0.441-0.337-0.832-0.337
	c-0.312,0-0.566,0.121-0.762,0.363c-0.196,0.242-0.309,0.551-0.34,0.926v4.248h-1.043v-4.219c-0.012-0.879-0.369-1.318-1.072-1.318
	c-0.523,0-0.893,0.262-1.107,0.785v4.752h-1.031v-6.34H255.084L255.084,146.827z M262.918,149.704c0-0.922,0.224-1.651,0.671-2.188
	c0.447-0.537,1.038-0.806,1.772-0.806s1.325,0.262,1.772,0.785c0.447,0.523,0.677,1.236,0.688,2.139v0.668
	c0,0.919-0.223,1.646-0.668,2.181c-0.445,0.535-1.039,0.804-1.781,0.804c-0.734,0-1.323-0.261-1.767-0.779s-0.673-1.223-0.688-2.109
	L262.918,149.704L262.918,149.704z M263.955,150.302c0,0.652,0.128,1.165,0.384,1.538s0.601,0.561,1.034,0.561
	c0.914,0,1.385-0.659,1.412-1.979v-0.715c0-0.648-0.129-1.161-0.387-1.538c-0.258-0.377-0.604-0.565-1.037-0.565
	c-0.426,0-0.767,0.188-1.022,0.565s-0.384,0.888-0.384,1.532V150.302z M270.137,146.827l0.029,0.686
	c0.402-0.535,0.916-0.803,1.541-0.803c1.121,0,1.689,0.748,1.705,2.244v4.213h-1.031v-4.166c0-0.496-0.083-0.849-0.249-1.058
	s-0.415-0.313-0.747-0.313c-0.258,0-0.489,0.086-0.694,0.258c-0.205,0.172-0.37,0.396-0.495,0.674v4.605h-1.037v-6.34H270.137z
	 M246.767,165.335h-2.883l-0.662,2.231h-1.102l2.748-8.53h0.92l2.754,8.53h-1.102L246.767,165.335z M244.166,164.415h2.326
	l-1.166-3.879L244.166,164.415z M252.175,162.2c-0.145-0.027-0.301-0.041-0.469-0.041c-0.531,0-0.902,0.291-1.113,0.873v4.534
	h-1.037v-6.34h1.008l0.018,0.646c0.277-0.509,0.67-0.763,1.178-0.763c0.164,0,0.301,0.026,0.41,0.082L252.175,162.2z
	 M255.363,167.686c-0.789,0-1.396-0.234-1.816-0.707c-0.421-0.471-0.637-1.16-0.645-2.069v-0.769c0-0.945,0.206-1.688,0.618-2.225
	s0.987-0.807,1.726-0.807c0.742,0,1.297,0.235,1.664,0.709c0.367,0.474,0.555,1.209,0.562,2.209v0.681h-3.539v0.146
	c0,0.682,0.128,1.174,0.384,1.482c0.256,0.309,0.624,0.463,1.104,0.463c0.305,0,0.573-0.058,0.806-0.173s0.45-0.298,0.653-0.548
	l0.539,0.656C256.97,167.368,256.285,167.686,255.363,167.686z M255.246,162.001c-0.43,0-0.748,0.147-0.955,0.442
	s-0.324,0.752-0.352,1.373h2.496v-0.142c-0.027-0.602-0.136-1.03-0.325-1.288C255.921,162.128,255.632,162.001,255.246,162.001z
	 M261.978,167.566c-0.062-0.137-0.107-0.366-0.135-0.69c-0.367,0.539-0.836,0.81-1.406,0.81c-0.574,0-1.022-0.162-1.345-0.482
	c-0.323-0.322-0.483-0.776-0.483-1.362c0-0.646,0.219-1.155,0.656-1.534c0.437-0.38,1.037-0.572,1.799-0.58h0.762v-0.675
	c0-0.379-0.084-0.647-0.252-0.809s-0.424-0.24-0.768-0.24c-0.312,0-0.566,0.095-0.762,0.276c-0.196,0.187-0.293,0.423-0.293,0.707
	h-1.037c0-0.323,0.096-0.635,0.287-0.93s0.449-0.524,0.773-0.693c0.324-0.168,0.686-0.252,1.084-0.252
	c0.648,0,1.142,0.16,1.479,0.482s0.511,0.793,0.519,1.409v3.199c0.004,0.487,0.07,0.911,0.199,1.271v0.094H261.978L261.978,167.566z
	 M260.595,166.741c0.254,0,0.496-0.07,0.729-0.212c0.229-0.141,0.396-0.315,0.504-0.526v-1.512h-0.586
	c-0.492,0.008-0.881,0.118-1.166,0.331c-0.285,0.213-0.428,0.511-0.428,0.894c0,0.359,0.072,0.62,0.217,0.782
	C260.008,166.66,260.251,166.741,260.595,166.741z"/>
<path id="text-capitol" d="M85.36,103.547c-0.062,1.219-0.405,2.152-1.027,2.801c-0.623,0.648-1.501,0.973-2.637,0.973
	c-1.141,0-2.047-0.434-2.719-1.301s-1.008-2.043-1.008-3.527v-2.062c0-1.479,0.345-2.648,1.035-3.508
	c0.69-0.859,1.631-1.289,2.824-1.289c1.099,0,1.949,0.328,2.551,0.984c0.602,0.656,0.928,1.597,0.98,2.82h-1.445
	c-0.062-0.927-0.258-1.589-0.586-1.984s-0.828-0.594-1.5-0.594c-0.776,0-1.373,0.304-1.789,0.91
	c-0.417,0.606-0.625,1.496-0.625,2.668v2.086c0,1.151,0.194,2.034,0.582,2.648c0.388,0.614,0.954,0.922,1.699,0.922
	c0.745,0,1.281-0.185,1.609-0.555c0.328-0.37,0.531-1.034,0.609-1.992H85.36z M91.454,107.164c-0.083-0.183-0.144-0.489-0.18-0.922
	c-0.49,0.719-1.115,1.078-1.875,1.078c-0.766,0-1.363-0.215-1.793-0.645c-0.43-0.43-0.645-1.035-0.645-1.816
	c0-0.859,0.292-1.542,0.875-2.047s1.383-0.763,2.398-0.773h1.016v-0.898c0-0.505-0.112-0.864-0.336-1.078s-0.565-0.32-1.023-0.32
	c-0.417,0-0.755,0.124-1.016,0.371c-0.261,0.247-0.391,0.562-0.391,0.941h-1.383c0-0.433,0.127-0.845,0.383-1.238
	c0.255-0.394,0.599-0.702,1.031-0.926s0.914-0.336,1.445-0.336c0.864,0,1.522,0.215,1.973,0.645c0.45,0.43,0.681,1.056,0.691,1.879
	v4.266c0.005,0.651,0.094,1.216,0.266,1.695v0.125L91.454,107.164L91.454,107.164z M89.61,106.062c0.338,0,0.661-0.094,0.969-0.281
	c0.307-0.188,0.531-0.422,0.672-0.703v-2.016H90.47c-0.656,0.011-1.175,0.157-1.555,0.441s-0.57,0.681-0.57,1.191
	c0,0.479,0.096,0.827,0.289,1.043C88.826,105.954,89.151,106.062,89.61,106.062z M100.875,103.344c0,1.339-0.241,2.336-0.723,2.992
	c-0.482,0.656-1.163,0.984-2.043,0.984c-0.849,0-1.503-0.32-1.961-0.961v4.055h-1.375V98.711h1.25l0.07,0.938
	c0.463-0.729,1.127-1.094,1.992-1.094c0.927,0,1.62,0.323,2.078,0.969s0.695,1.612,0.711,2.898L100.875,103.344L100.875,103.344z
	 M99.5,102.555c0-0.948-0.146-1.647-0.438-2.098c-0.292-0.45-0.761-0.676-1.406-0.676c-0.662,0-1.164,0.331-1.508,0.992v4.398
	c0.338,0.646,0.846,0.969,1.523,0.969c0.625,0,1.084-0.226,1.379-0.676c0.294-0.45,0.444-1.14,0.449-2.066L99.5,102.555
	L99.5,102.555z M104.258,96.469c0,0.234-0.065,0.43-0.195,0.586c-0.13,0.156-0.328,0.234-0.594,0.234
	c-0.261,0-0.456-0.078-0.586-0.234c-0.13-0.156-0.195-0.352-0.195-0.586c0-0.234,0.065-0.433,0.195-0.594
	c0.13-0.161,0.325-0.242,0.586-0.242c0.26,0,0.457,0.082,0.59,0.246C104.192,96.043,104.258,96.239,104.258,96.469z
	 M104.149,107.164h-1.383v-8.453h1.383V107.164z M108.133,96.664v2.047h1.273v1.117h-1.273v5.249c0,0.333,0.055,0.587,0.164,0.759
	c0.109,0.172,0.297,0.258,0.562,0.258c0.182,0,0.367-0.031,0.555-0.094l-0.016,1.165c-0.312,0.104-0.633,0.155-0.961,0.155
	c-0.547,0-0.964-0.195-1.25-0.586c-0.287-0.391-0.43-0.942-0.43-1.656v-5.25h-1.289v-1.117h1.289v-2.047H108.133z M110.602,102.547
	c0-1.229,0.298-2.202,0.895-2.918c0.596-0.716,1.384-1.074,2.363-1.074s1.767,0.349,2.363,1.047
	c0.596,0.698,0.902,1.648,0.918,2.852v0.891c0,1.224-0.297,2.192-0.891,2.906s-1.386,1.07-2.375,1.07
	c-0.979,0-1.765-0.347-2.355-1.039c-0.591-0.692-0.897-1.63-0.918-2.812V102.547z M111.985,103.344c0,0.87,0.17,1.554,0.512,2.051
	c0.341,0.497,0.801,0.746,1.379,0.746c1.219,0,1.846-0.88,1.883-2.641v-0.953c0-0.864-0.172-1.548-0.516-2.051
	c-0.344-0.503-0.805-0.754-1.383-0.754c-0.568,0-1.022,0.251-1.363,0.754s-0.512,1.184-0.512,2.043V103.344z M120.415,107.164
	h-1.383v-12h1.383V107.164z"/>
<path id="text-worthington" d="M181.906,61.893l-1.273,0.148l1.125,0.227l7.938,1.82v1.195l-7.938,1.766l-1.156,0.227l1.312,0.164
	l7.781,1.391v1.43l-11.375-2.266v-1.289l8.289-1.898l0.672-0.117l-0.672-0.117l-8.289-1.969v-1.297l11.375-2.258v1.43
	L181.906,61.893z M182.938,71.182c1.229,0,2.202,0.298,2.918,0.895c0.716,0.596,1.074,1.384,1.074,2.363s-0.349,1.767-1.047,2.363
	c-0.698,0.596-1.648,0.902-2.852,0.918h-0.891c-1.224,0-2.192-0.297-2.906-0.891c-0.714-0.594-1.07-1.386-1.07-2.375
	c0-0.979,0.347-1.765,1.039-2.355c0.692-0.591,1.63-0.897,2.812-0.918H182.938z M182.141,72.564c-0.87,0-1.554,0.17-2.051,0.512
	c-0.497,0.341-0.746,0.801-0.746,1.379c0,1.219,0.88,1.846,2.641,1.883h0.953c0.864,0,1.548-0.172,2.051-0.516
	c0.503-0.344,0.754-0.805,0.754-1.383c0-0.568-0.251-1.022-0.754-1.363c-0.503-0.341-1.184-0.512-2.043-0.512H182.141z
	 M185.477,82.994c0.036-0.193,0.055-0.401,0.055-0.625c0-0.708-0.388-1.203-1.164-1.484h-6.047v-1.383h8.453v1.344l-0.859,0.023
	c0.677,0.37,1.016,0.893,1.016,1.57c0,0.219-0.036,0.401-0.109,0.547L185.477,82.994z M188.82,86.572h-2.047v1.273h-1.117v-1.273
	h-5.249c-0.333,0-0.587,0.055-0.759,0.164c-0.172,0.109-0.258,0.297-0.258,0.562c0,0.182,0.031,0.367,0.094,0.555l-1.165-0.016
	c-0.104-0.312-0.155-0.633-0.155-0.961c0-0.547,0.195-0.964,0.586-1.25c0.391-0.287,0.942-0.43,1.656-0.43h5.25v-1.289h1.117v1.289
	h2.047V86.572z M185.906,90.869c0.683,0.526,1.023,1.198,1.023,2.016c0,1.495-0.997,2.252-2.992,2.273h-5.617v-1.375h5.555
	c0.661,0,1.132-0.111,1.41-0.332c0.278-0.222,0.418-0.554,0.418-0.996c0-0.344-0.114-0.652-0.344-0.926
	c-0.23-0.274-0.528-0.494-0.898-0.66h-6.141v-1.383h12v1.383H185.906L185.906,90.869z M178.32,98.705v-1.383h8.453v1.383H178.32z
	 M189.016,98.814c-0.234,0-0.43-0.065-0.586-0.195c-0.156-0.13-0.234-0.328-0.234-0.594c0-0.261,0.078-0.456,0.234-0.586
	c0.156-0.13,0.352-0.195,0.586-0.195s0.433,0.065,0.594,0.195c0.161,0.13,0.242,0.325,0.242,0.586c0,0.26-0.082,0.457-0.246,0.59
	C189.442,98.748,189.245,98.814,189.016,98.814z M186.773,102.182l-0.914,0.039c0.714,0.536,1.07,1.221,1.07,2.055
	c0,1.495-0.997,2.252-2.992,2.273h-5.617v-1.375h5.555c0.661,0,1.132-0.111,1.41-0.332c0.278-0.222,0.418-0.554,0.418-0.996
	c0-0.344-0.114-0.652-0.344-0.926s-0.528-0.494-0.898-0.66h-6.141v-1.383h8.453V102.182z M182.93,108.346
	c1.317,0,2.313,0.239,2.988,0.719c0.675,0.479,1.012,1.18,1.012,2.102c0,0.859-0.367,1.513-1.102,1.961l0.945,0.07v1.25h-8.531
	c-1.047,0-1.851-0.269-2.41-0.805c-0.56-0.537-0.84-1.284-0.84-2.242c0-0.417,0.103-0.884,0.309-1.402
	c0.206-0.519,0.46-0.908,0.762-1.168l0.953,0.562c-0.562,0.573-0.844,1.206-0.844,1.898c0,1.151,0.628,1.742,1.883,1.773h1.102
	c-0.661-0.448-0.992-1.083-0.992-1.906c0-0.875,0.329-1.558,0.988-2.047c0.659-0.49,1.605-0.745,2.84-0.766L182.93,108.346
	L182.93,108.346z M182.145,109.729c-0.946,0-1.643,0.139-2.087,0.418c-0.444,0.278-0.667,0.735-0.667,1.371
	c0,0.688,0.352,1.203,1.054,1.547h4.221c0.692-0.359,1.038-0.87,1.038-1.531c0-0.636-0.223-1.094-0.667-1.375
	c-0.445-0.281-1.128-0.425-2.048-0.43H182.145z M188.82,118.314h-2.047v1.273h-1.117v-1.273h-5.249
	c-0.333,0-0.587,0.055-0.759,0.164s-0.258,0.297-0.258,0.562c0,0.182,0.031,0.367,0.094,0.555l-1.165-0.016
	c-0.104-0.312-0.155-0.633-0.155-0.961c0-0.547,0.195-0.964,0.586-1.25c0.391-0.287,0.942-0.43,1.656-0.43h5.25v-1.289h1.117v1.289
	h2.047V118.314z M182.938,120.783c1.229,0,2.202,0.298,2.918,0.895c0.716,0.596,1.074,1.384,1.074,2.363s-0.349,1.767-1.047,2.363
	c-0.698,0.596-1.648,0.902-2.852,0.918h-0.891c-1.224,0-2.192-0.297-2.906-0.891c-0.714-0.594-1.07-1.386-1.07-2.375
	c0-0.979,0.347-1.765,1.039-2.355c0.692-0.591,1.63-0.897,2.812-0.918H182.938z M182.141,122.166c-0.87,0-1.554,0.17-2.051,0.512
	c-0.497,0.341-0.746,0.801-0.746,1.379c0,1.219,0.88,1.846,2.641,1.883h0.953c0.864,0,1.548-0.172,2.051-0.516
	c0.503-0.344,0.754-0.805,0.754-1.383c0-0.568-0.251-1.022-0.754-1.363c-0.503-0.341-1.184-0.512-2.043-0.512H182.141z
	 M186.773,130.408l-0.914,0.039c0.714,0.536,1.07,1.221,1.07,2.055c0,1.495-0.997,2.252-2.992,2.273h-5.617V133.4h5.555
	c0.661,0,1.132-0.111,1.41-0.332c0.278-0.222,0.418-0.554,0.418-0.996c0-0.344-0.114-0.652-0.344-0.926s-0.528-0.494-0.898-0.66
	h-6.141v-1.383h8.453V130.408z"/>
<path id="text-women1" d="M310.383,153.479l0.111,0.955l0.17-0.845l1.365-5.953h0.896l1.324,5.953l0.17,0.867l0.123-0.983
	l1.043-5.835h1.072l-1.699,8.531h-0.967l-1.424-6.217l-0.088-0.504l-0.088,0.504l-1.477,6.217h-0.973l-1.693-8.531h1.072
	L310.383,153.479z M323.443,152.65c0,1.164-0.248,2.062-0.744,2.688c-0.496,0.628-1.201,0.943-2.115,0.943
	c-0.879,0-1.573-0.308-2.083-0.917c-0.51-0.611-0.774-1.477-0.794-2.594v-1.604c0-1.141,0.252-2.034,0.756-2.681
	s1.207-0.97,2.109-0.97c0.898,0,1.599,0.31,2.101,0.929c0.502,0.619,0.759,1.503,0.771,2.653L323.443,152.65L323.443,152.65z
	 M322.371,151.157c0-0.902-0.147-1.573-0.442-2.013c-0.295-0.44-0.747-0.659-1.356-0.659c-0.59,0-1.036,0.223-1.339,0.668
	c-0.303,0.445-0.456,1.102-0.46,1.969v1.528c0,0.871,0.151,1.535,0.454,1.992s0.755,0.687,1.356,0.687s1.047-0.211,1.336-0.634
	c0.289-0.422,0.439-1.067,0.451-1.938V151.157L322.371,151.157z M326.484,147.636l2.227,6.961l2.227-6.961h1.383v8.531h-1.072
	v-3.321l0.1-3.329l-2.232,6.65h-0.82l-2.221-6.627l0.1,3.306v3.321h-1.072v-8.531H326.484L326.484,147.636z M338.256,152.225h-3.018
	v3.022h3.516v0.92h-4.588v-8.531h4.529v0.92h-3.457v2.749h3.018V152.225z M345.697,156.167h-1.078l-3.416-6.574v6.574h-1.078v-8.531
	h1.078l3.428,6.604v-6.604h1.066V156.167z"/>
<path id="text-men1" d="M317.137,176.637l2.229,6.961l2.227-6.961h1.383v8.53H321.9v-3.321l0.1-3.328l-2.232,6.649h-0.82
	l-2.221-6.627l0.1,3.306v3.321h-1.072v-8.531L317.137,176.637L317.137,176.637z M328.908,181.225h-3.018v3.022h3.516v0.92h-4.588
	v-8.53h4.529v0.92h-3.457v2.748h3.018V181.225z M336.35,185.167h-1.078l-3.416-6.574v6.574h-1.078v-8.53h1.078l3.428,6.604v-6.604
	h1.066V185.167L336.35,185.167z"/>
<path id="text-women2" d="M472.958,183.468l0.093,0.796l0.144-0.703l1.138-4.961h0.747l1.104,4.961l0.144,0.725l0.103-0.82
	l0.869-4.861h0.895l-1.415,7.107h-0.808l-1.187-5.182l-0.073-0.42l-0.073,0.42l-1.229,5.182h-0.812l-1.411-7.107h0.896
	L472.958,183.468z M483.842,182.779c0,0.97-0.207,1.717-0.62,2.24s-1.001,0.787-1.763,0.787c-0.732,0-1.311-0.257-1.736-0.766
	c-0.424-0.51-0.645-1.229-0.66-2.161v-1.338c0-0.95,0.209-1.694,0.631-2.231c0.42-0.539,1.006-0.811,1.758-0.811
	c0.748,0,1.332,0.258,1.75,0.771c0.419,0.519,0.633,1.254,0.643,2.211L483.842,182.779L483.842,182.779z M482.948,181.534
	c0-0.752-0.123-1.312-0.368-1.677c-0.246-0.367-0.623-0.551-1.131-0.551c-0.492,0-0.863,0.187-1.115,0.557
	c-0.253,0.371-0.381,0.919-0.384,1.642v1.274c0,0.726,0.126,1.279,0.378,1.66c0.253,0.381,0.629,0.569,1.131,0.569
	s0.873-0.176,1.113-0.526c0.24-0.352,0.365-0.892,0.376-1.615V181.534z M486.376,178.6l1.854,5.801l1.854-5.801h1.152v7.109h-0.896
	v-2.77l0.083-2.772l-1.858,5.542h-0.686l-1.851-5.521l0.083,2.754v2.77h-0.896v-7.109h1.158V178.6z M496.186,182.423h-2.515v2.521
	h2.93v0.768h-3.821v-7.109h3.772v0.768h-2.881v2.29h2.515V182.423z M502.387,185.709h-0.896l-2.849-5.479v5.479h-0.896V178.6h0.896
	l2.856,5.504V178.6h0.889V185.709z"/>
<path id="text-men2" d="M478.753,149.6l1.855,5.8l1.854-5.8h1.152v7.109h-0.896v-2.77l0.083-2.772l-1.858,5.542h-0.686l-1.851-5.521
	l0.083,2.754v2.77h-0.896v-7.11L478.753,149.6L478.753,149.6z M488.562,153.423h-2.517v2.521h2.931v0.768h-3.822v-7.11h3.772v0.767
	h-2.881v2.29h2.517V153.423z M494.764,156.709h-0.896l-2.848-5.479v5.479h-0.897V149.6h0.897l2.855,5.503V149.6h0.889V156.709z"/>
<polygon id="base-elevator-text" points="436.123,169.077 432.545,169.077 432.545,172.093 436.779,172.093 436.779,173.999 
	430.248,173.999 430.248,162.624 436.764,162.624 436.764,164.538 432.545,164.538 432.545,167.227 436.123,167.227 "/>
<rect id="base-boardroom-door2" x="409.145" y="110.013" transform="matrix(0.968 0.251 -0.251 0.968 41.188 -100.8963)" width="13.946" height="2"/>
<rect id="base-boardroom-door1" x="380.749" y="104.027" transform="matrix(0.251 0.968 -0.968 0.251 393.3884 -286.3893)" width="2" height="13.946"/>
</svg>
